<?xml version="1.0" encoding="UTF-8" standalone="no"?>
<svg
   version="1.1"
   id="Layer_1"
   x="0px"
   y="0px"
   viewBox="0 0 119.71678 122.88418"
   xml:space="preserve"
   width="119.71678"
   height="122.88419"
   xmlns="http://www.w3.org/2000/svg"
   xmlns:svg="http://www.w3.org/2000/svg"><defs
     id="defs228" /><style
     type="text/css"
     id="style219">.st0{fill-rule:evenodd;clip-rule:evenodd;}</style><g
     id="g223"
     transform="translate(-0.00161023)"
     style="fill:#c4c2c2;fill-opacity:1"><path
       class="st0"
       d="m 40.06,0.37 c 9.4,0 17.03,11.69 17.03,26.1 0,14.41 -7.63,26.1 -17.03,26.1 -9.4,0 -17.03,-11.68 -17.03,-26.1 0.01,-14.41 7.63,-26.1 17.03,-26.1 z m 21.65,63.18 c 19.94,0.04 22.42,13.25 39.23,35.86 8.38,16.45 -2.5,26.82 -21.15,22.38 -8.46,-4.31 -14.41,-5.83 -20.38,-5.63 -10.34,0.36 -12.95,7.18 -24.98,6.7 -9.28,-0.25 -13.46,-4.14 -14.27,-10.07 -0.87,-6.3 1.56,-10.28 4.52,-15.49 C 36.18,77.02 48.07,61.01 61.71,63.55 Z M 7.17,39.08 C 0.14,41.86 -2.1,52.85 2.16,63.62 6.42,74.39 15.57,80.87 22.6,78.09 29.63,75.31 31.87,64.32 27.61,53.55 23.35,42.78 14.2,36.3 7.17,39.08 Z m 105.38,0 c 7.03,2.78 9.27,13.77 5.01,24.54 C 113.3,74.39 104.14,80.87 97.12,78.09 90.09,75.31 87.85,64.32 92.11,53.55 96.37,42.78 105.52,36.3 112.55,39.08 Z M 79.35,0 c 9.4,0 17.03,11.69 17.03,26.1 0,14.41 -7.63,26.1 -17.03,26.1 C 69.95,52.2 62.32,40.52 62.32,26.1 62.33,11.69 69.95,0 79.35,0 Z"
       id="path221"
       style="fill:#c4c2c2;fill-opacity:1" /></g></svg>
